<?xml version="1.0" encoding="UTF-8" standalone="no"?>
<!DOCTYPE svg PUBLIC "-//W3C//DTD SVG 1.1//EN" "http://www.w3.org/Graphics/SVG/1.1/DTD/svg11.dtd">
<svg xmlns="http://www.w3.org/2000/svg" version="1.1" viewBox="50 0 130 150">
  <path fill="#9e2530" d="
  M 119.35 41.20
  Q 119.56 41.19 119.56 40.97
  L 119.41 32.53
  Q 119.41 32.26 119.13 32.25
  L 111.72 32.23
  A 1.01 1.00 90.0 0 1 110.72 31.22
  L 110.75 28.00
  Q 110.76 27.00 111.75 27.00
  L 132.01 27.00
  Q 133.03 27.00 133.01 28.01
  L 132.97 31.28
  Q 132.96 32.28 131.97 32.27
  L 125.42 32.19
  Q 124.52 32.18 124.52 33.08
  L 124.48 40.51
  A 0.85 0.85 0.0 0 0 125.33 41.36
  C 141.63 41.38 158.00 46.94 166.25 61.76
  Q 166.56 62.32 167.20 62.32
  L 174.27 62.27
  Q 175.53 62.27 175.48 63.52
  L 175.40 66.14
  Q 175.35 67.45 174.04 67.42
  L 168.78 67.28
  A 1.05 1.04 1.1 0 0 167.70 68.31
  Q 167.58 82.28 167.76 96.84
  C 167.86 105.88 166.83 112.73 158.79 116.53
  Q 155.99 117.85 151.56 117.85
  Q 119.88 117.85 91.05 117.83
  C 88.80 117.82 86.59 117.30 84.65 116.27
  Q 75.98 111.69 75.95 100.69
  Q 75.92 85.63 75.99 68.00
  Q 75.99 67.36 75.35 67.36
  L 69.45 67.38
  A 0.91 0.90 0.9 0 1 68.54 66.45
  L 68.66 63.03
  Q 68.68 62.25 69.47 62.25
  L 76.73 62.26
  Q 77.33 62.26 77.63 61.73
  C 86.43 46.25 102.02 42.07 119.35 41.20
  Z
  M 92.16 112.97
  L 151.42 112.87
  A 11.17 11.17 0.0 0 0 162.57 101.68
  L 162.52 71.66
  A 35.56 25.05 -0.1 0 0 126.91 46.67
  L 116.43 46.69
  A 35.56 25.05 -0.1 0 0 80.92 71.80
  L 80.97 101.82
  A 11.17 11.17 0.0 0 0 92.16 112.97
  Z" />
</svg>
